How.I.Met.Your.Mother.S08E05.720p.HD.[ynorte ]

Format                           : MPEG-4
Format profile                   : Base Media
Codec ID                         : isom
File size                        : 185 MiB
Duration                         : 21mn 13s
Overall bit rate                 : 1 220 Kbps
Encoded date                     : UTC 2012-11-06 02:00:55
Tagged date                      : UTC 2012-11-06 02:00:55

Video
ID                               : 1
Format                           : AVC
Format/Info                      : Advanced Video Codec
Format profile                   : High@L3.1
Format settings, CABAC           : Yes
Format settings, ReFrames        : 5 frames
Codec ID                         : avc1
Codec ID/Info                    : Advanced Video Coding
Duration                         : 21mn 13s
Bit rate mode                    : Variable
Bit rate                         : 1 088 Kbps
Maximum bit rate                 : 4 809 Kbps
Width                            : 720 pixels
Height                           : 404 pixels
Display aspect ratio             : 16:9
Frame rate mode                  : Constant
Frame rate                       : 23.976 fps
Color space                      : YUV
Chroma subsampling               : 4:2:0
Bit depth                        : 8 bits
Scan type                        : Progressive
Bits/(Pixel*Frame)               : 0.156
Stream size                      : 165 MiB (89%)
Writing library                  : x264 core 128 r2216 198a7ea
Encoding settings                : cabac=1 / ref=5 / deblock=1:0:0 / 
Matrix coefficients              : BT.709-5, BT.1361, IEC 61966-2-4 709, SMPTE RP177

Audio
ID                               : 2
Format                           : AAC
Format/Info                      : Advanced Audio Codec
Format profile                   : LC
Codec ID                         : 40
Duration                         : 21mn 13s
Bit rate mode                    : Variable
Bit rate                         : 128 Kbps
Maximum bit rate                 : 142 Kbps
Channel(s)                       : 2 channels
Channel positions                : Front: L R
Sampling rate                    : 48.0 KHz
Compression mode                 : Lossy
Stream size                      : 19.4 MiB (10%)
Encoded date                     : UTC 2012-11-06 02:00:56
Tagged date                      : UTC 2012-11-06 02:00:56

